PathFileType	4	(X/Y/Z)	C:\Users\Basilio\Documents\Thesis Gigler\squatting_fais\c3dfiles\039\SLS_pre_front1\markers_experimental.trc
DataRate	CameraRate	NumFrames	NumMarkers	Units	OrigDataRate	OrigDataStartFrame	OrigNumFrames
200.000000	200.000000	4	63	mm	200.000000	351	1405
Frame#	Time	FHD			RBHD			C7			T10			LSHO			LUUPA			LMUPA			LDUPA			LLEP			LMEP			LRAD			LUL			LRFIN			RSHO			RUPA1			RMUPA			RDUPA			RLEP			RMEP			RRAD			RUL			RUFIN			LASI			RASI			USACR			LSACR			RSACR			LTHI1			LTHI2			LTHI3			LTHI4			LLFC			LMFC			LTIB1			LTIB2			LTIB3			LTIB4			LLMAL			LMMAL			LHEE			LMT1			LMT2			LMT5			RTHI			RTHI2			RTHI3			RTHI4			RLFC			RMFC			RTIB1			RTIB2			RTIB3			RTIB4			RLMAL			RMMAL			RHEE			RMT1			RMT2			RMT5			LBHD			CLAV			*61			*62			
		X1	Y1	Z1	X2	Y2	Z2	X3	Y3	Z3	X4	Y4	Z4	X5	Y5	Z5	X6	Y6	Z6	X7	Y7	Z7	X8	Y8	Z8	X9	Y9	Z9	X10	Y10	Z10	X11	Y11	Z11	X12	Y12	Z12	X13	Y13	Z13	X14	Y14	Z14	X15	Y15	Z15	X16	Y16	Z16	X17	Y17	Z17	X18	Y18	Z18	X19	Y19	Z19	X20	Y20	Z20	X21	Y21	Z21	X22	Y22	Z22	X23	Y23	Z23	X24	Y24	Z24	X25	Y25	Z25	X26	Y26	Z26	X27	Y27	Z27	X28	Y28	Z28	X29	Y29	Z29	X30	Y30	Z30	X31	Y31	Z31	X32	Y32	Z32	X33	Y33	Z33	X34	Y34	Z34	X35	Y35	Z35	X36	Y36	Z36	X37	Y37	Z37	X38	Y38	Z38	X39	Y39	Z39	X40	Y40	Z40	X41	Y41	Z41	X42	Y42	Z42	X43	Y43	Z43	X44	Y44	Z44	X45	Y45	Z45	X46	Y46	Z46	X47	Y47	Z47	X48	Y48	Z48	X49	Y49	Z49	X50	Y50	Z50	X51	Y51	Z51	X52	Y52	Z52	X53	Y53	Z53	X54	Y54	Z54	X55	Y55	Z55	X56	Y56	Z56	X57	Y57	Z57	X58	Y58	Z58	X59	Y59	Z59	X60	Y60	Z60	X61	Y61	Z61	X62	Y62	Z62	X63	Y63	Z63	

352	1.755	-278.2351989746094	1672.73876953125	-627.1323242187501	-408.9933166503907	1648.907592773438	-607.7716064453126	-481.7034912109376	1484.95849609375	-688.8168945312501	-530.8117065429689	1181.109741210938	-718.6621093750001	-407.2600708007814	1495.575561523438	-849.5021972656252	-247.7101745605469	1464.6298828125	-966.1059570312502	-223.7490692138672	1495.758178710938	-934.4626464843752	-178.8502655029297	1475.544189453125	-968.8635253906252	-112.2674179077149	1485.265014648438	-966.6630859375002	-105.3211364746094	1414.113525390625	-936.9947509765627	169.6670074462891	1515.718627929688	-893.497985839844	166.2516021728516	1526.969482421875	-968.7878417968752	249.5647430419922	1550.304809570313	-888.1475830078127	-370.7595825195313	1480.334594726563	-534.5471801757814	-209.1635284423829	1421.231689453125	-437.3356018066407	-183.896224975586	1456.627563476563	-463.6513977050782	-140.5047912597657	1421.40185546875	-439.3980407714845	-78.05059814453126	1437.655151367188	-450.5246887207032	-70.66087341308595	1370.298950195313	-489.5764465332032	206.8027496337891	1492.62890625	-533.4340209960939	207.6088256835938	1484.510009765625	-456.4646301269532	294.0672912597657	1526.831909179688	-524.8887329101564	-375.6337890625001	1026.9619140625	-859.510192871094	-359.5037231445313	994.5111083984377	-638.2704467773439	-552.0714721679689	1035.975219726563	-732.8356933593751	-554.0570678710939	1006.961608886719	-764.2601928710939	-549.0891723632814	999.5881347656252	-705.6861572265626	-247.6991271972657	828.628601074219	-942.2117919921877	-164.9359283447266	811.7900390625002	-933.2329711914065	-142.338363647461	849.568054199219	-915.0369873046877	-138.962158203125	756.2946166992189	-925.9155883789065	-39.19554901123048	687.2068481445314	-921.6873168945315	-9.958896636962892	679.1072387695314	-806.566101074219	112.4028625488282	635.8720092773439	-893.3450927734377	105.5758743286133	564.6854858398439	-942.8647460937502	135.8656921386719	591.6077270507814	-923.1206054687502	195.6077728271485	538.3568115234376	-886.4815063476565	292.3086853027344	392.1871948242189	-929.434753417969	298.2776794433594	393.0429077148439	-842.0520629882815	280.0947570800782	303.0227050781251	-898.576843261719	449.9005737304689	458.818817138672	-848.0139770507815	448.3336181640626	461.2889099121095	-890.291687011719	436.8358154296876	418.7270812988282	-947.2766113281252	-299.7468261718751	732.2830200195314	-581.5146484375001	-240.0626678466797	701.6859130859376	-578.0402832031251	-212.0077056884766	718.7482910156251	-582.6163330078126	-228.0111999511719	617.8339233398439	-591.1613159179689	-209.8163757324219	494.0413513183595	-622.4022216796876	-173.8473663330078	501.3275451660157	-732.3173217773439	-228.7243347167969	295.5213012695313	-675.0988769531251	-330.6746215820313	260.3061828613282	-674.3062744140626	-290.0032043457032	238.0951232910157	-679.1649780273439	-287.8925170898438	193.5352478027344	-719.9632568359376	-381.5494079589844	123.2255554199219	-710.7674560546876	-347.3890380859376	144.9953002929688	-792.5555419921877	-454.023651123047	109.1992645263672	-768.6341552734377	-232.0272216796876	54.6854705810547	-777.7032470703127	-236.4018859863282	55.17787933349611	-731.5954589843751	-292.8411865234376	39.1881332397461	-680.7268066406251	-435.6127929687501	1642.701538085938	-746.7928466796876	nan	nan	nan	nan	nan	nan	nan	nan	nan	
353	1.76	-278.1655578613282	1671.708618164063	-627.1498413085939	-408.9470214843751	1648.047973632813	-607.7027587890626	-481.7264099121095	1484.017822265625	-688.7192993164064	-530.5072021484376	1180.665283203125	-718.3995361328126	-407.1286010742189	1494.80517578125	-849.4675903320315	-247.8027343750001	1463.740478515625	-966.025817871094	-223.7565002441407	1494.669799804688	-934.3557739257815	-178.7535400390625	1474.778076171875	-968.8003540039065	-112.2327957153321	1484.177001953125	-966.4752197265627	-105.2671432495117	1413.19189453125	-936.9749755859377	169.8570098876953	1514.692138671875	-893.5598144531252	166.469955444336	1525.877197265625	-968.8143310546877	249.7112884521485	1549.276611328125	-888.1926879882815	-370.6955566406251	1479.419555664063	-534.5132446289064	-209.0881958007813	1420.136108398438	-437.2606811523439	-183.9213562011719	1455.567504882813	-463.6496582031251	-140.3451080322266	1420.421630859375	-439.4421691894532	-78.11157226562501	1436.782836914063	-450.2935180664064	-70.66555023193361	1369.372192382813	-489.5110778808595	207.4987945556641	1491.257202148438	-533.6047973632814	207.6224975585938	1483.441162109375	-456.485076904297	294.1726684570313	1525.906860351563	-525.0694580078126	-375.7495422363282	1026.220336914063	-859.513854980469	-359.2843322753907	994.0765380859377	-638.0526123046876	-552.3653564453126	1035.308227539063	-732.8050537109376	-554.3410034179689	1006.092895507813	-764.3201904296876	-549.3289184570314	998.8370361328127	-705.7421264648439	-248.1582031250001	827.6726684570315	-942.3817138671877	-164.9660034179688	811.0620727539065	-933.2588500976565	-142.0316772460938	848.848083496094	-914.956481933594	-138.9181518554688	755.5812377929689	-925.9849243164065	-39.11397552490235	686.6198120117189	-921.757751464844	-10.01921176910401	678.5942993164064	-806.566101074219	112.5153884887696	635.4426879882814	-893.4958496093752	105.6502151489258	564.2514648437501	-942.949157714844	135.9102325439453	591.2888183593751	-923.2973632812502	195.7425384521485	537.9863281250001	-886.5337524414065	292.5131835937501	391.8652954101564	-929.5354614257815	298.5287475585938	392.7540588378907	-842.0842285156252	280.4272460937501	302.5481567382813	-898.690856933594	449.5682678222657	458.382781982422	-848.2837524414065	447.4748535156251	461.188446044922	-890.8645019531252	436.9681091308595	418.4627990722657	-947.3601684570315	-299.5572509765626	731.6875610351564	-581.2566528320314	-239.8577270507813	701.2806396484376	-577.7670898437501	-211.9297943115235	718.2270507812501	-582.2692260742189	-227.7338256835938	617.4547119140626	-590.7955322265626	-209.1336517333985	493.9723510742189	-622.0370483398439	-173.3764801025391	500.9157104492189	-732.0120239257814	-228.5819702148438	295.4765625000001	-674.6374511718751	-330.5601501464844	260.1547546386719	-674.0175781250001	-289.8339233398438	237.9467163085938	-678.9355468750001	-287.7456054687501	193.4305572509766	-719.6261596679689	-381.5237121582032	123.2358322143555	-710.6984252929689	-347.2797241210938	145.0294647216797	-792.3440551757815	-454.0333862304689	109.1921997070313	-768.5891113281252	-231.9461822509766	54.62763595581056	-777.6858520507815	-236.3600463867188	55.1125946044922	-731.5119018554689	-292.8846130371094	39.18061447143555	-680.7347412109376	-436.7009582519532	1642.161254882813	-746.9284057617189	nan	nan	nan	nan	nan	nan	nan	nan	nan	
354	1.765	-278.0764465332032	1670.846435546875	-626.8707275390626	-408.8575439453126	1647.19677734375	-607.6505126953126	-481.743377685547	1483.270141601563	-688.5988769531251	-530.7964477539064	1179.822387695313	-718.4418945312501	-407.0810852050782	1493.956298828125	-849.3726806640627	-247.762191772461	1462.82421875	-965.9500122070315	-224.0830078125001	1494.068481445313	-934.5108032226565	-178.7268981933594	1473.805419921875	-968.758483886719	-112.2318878173828	1483.223876953125	-966.485046386719	-105.2489624023438	1412.08056640625	-936.9171142578127	169.8771209716797	1513.2158203125	-893.2532348632815	166.5040893554688	1524.803466796875	-968.694763183594	249.7636260986329	1547.840576171875	-887.9470214843752	-370.7734069824219	1478.593872070313	-534.4078369140626	-208.7903137207032	1419.629638671875	-436.9595642089845	-183.8839721679688	1454.622192382813	-463.6903686523439	-140.3812866210938	1419.421508789063	-439.2907104492189	-78.06914520263673	1436.033569335938	-450.308074951172	-70.66605377197267	1368.331176757813	-489.4556884765626	207.394515991211	1490.142578125	-533.5784301757814	207.3362121582032	1481.920776367188	-456.8784179687501	294.1322021484376	1524.560546875	-525.0430297851564	-375.8094787597657	1025.611694335938	-859.5886230468752	-359.4747924804688	993.3150024414065	-638.0264282226564	-552.4262695312501	1034.437377929688	-732.8807373046876	-554.3765258789064	1005.131530761719	-764.3229370117189	-549.3957519531251	997.966003417969	-705.6339721679689	-248.1759490966797	827.0684814453127	-942.3692626953127	-164.9973449707032	810.5040283203127	-933.2834472656252	-142.0797119140625	848.3229980468752	-914.9863891601565	-138.9272918701172	754.8964843750001	-926.0798339843752	-38.87661743164063	686.1163940429689	-921.8339843750002	-9.958290100097658	678.0419921875001	-806.4957275390627	112.5706405639649	634.6751098632814	-893.688415527344	105.8585815429688	563.8040161132814	-942.9951782226565	135.852294921875	590.3834838867189	-923.1802368164065	195.8833618164063	537.5424804687501	-886.5818481445315	292.6858520507813	391.4498596191407	-929.6749267578127	298.6878051757813	392.5564270019532	-842.3437500000002	280.5502624511719	302.2854309082032	-898.8223266601565	449.6851501464845	458.1650390625001	-848.3557128906252	448.8648376464845	461.0408935546876	-890.515563964844	437.122283935547	418.1666870117189	-947.527282714844	-299.4288635253907	731.2852783203126	-581.0093383789064	-239.6985931396485	700.9401855468751	-577.5513305664064	-211.8509063720704	717.8462524414064	-581.9140625000001	-227.3892059326172	617.0462646484376	-590.5300292968751	-208.7024536132813	493.6761474609376	-621.7416381835939	-172.8164520263672	500.585418701172	-731.6002807617189	-228.3911285400391	295.2797546386719	-674.2811279296876	-330.4963378906251	260.1343078613282	-673.7395019531251	-289.7337036132813	237.8458404541016	-678.7495117187501	-287.6805725097657	193.2759704589844	-719.4321289062501	-381.5293579101563	123.2516479492188	-710.5635375976564	-346.9980468750001	145.3148498535157	-792.0893554687502	-454.0418090820314	109.2395477294922	-768.514099121094	-231.8538818359376	54.70537567138673	-777.5549316406252	-236.3633728027344	55.13001251220705	-731.4130859375001	-292.9017944335938	39.1334571838379	-680.7340087890626	-436.8266906738282	1641.234619140625	-746.7094726562501	nan	nan	nan	nan	nan	nan	nan	nan	nan	
355	1.77	-277.9891967773438	1670.243286132813	-626.9202880859376	-408.797332763672	1646.595581054688	-607.5694580078126	-481.7817687988282	1482.625244140625	-688.4917602539064	-530.9373779296876	1179.054443359375	-718.4573364257814	-407.1742553710939	1493.170166015625	-849.253845214844	-247.7222290039063	1462.014892578125	-965.966491699219	-223.9627685546876	1493.149047851563	-934.468933105469	-178.7823181152344	1472.841918945313	-968.7327270507815	-112.1872024536133	1482.22900390625	-966.5767822265627	-105.3964920043946	1410.938598632813	-936.8809814453127	169.8636932373047	1512.264526367188	-893.3023681640627	166.5675354003907	1523.578125	-968.710144042969	249.9201965332032	1546.850341796875	-888.049011230469	-370.7824096679688	1477.853271484375	-534.2780151367189	-208.9404296875001	1418.609252929688	-436.7937622070314	-183.5484466552735	1454.144165039063	-463.4197082519532	-140.4889221191407	1418.62109375	-439.2589416503907	-78.09473419189455	1434.901489257813	-450.2390136718751	-70.74234008789064	1367.38232421875	-489.6239318847657	207.4669036865235	1489.083251953125	-533.6760253906251	207.3627929687501	1480.968994140625	-457.0318603515626	294.1391296386719	1523.572265625	-525.1250000000001	-376.0439758300782	1024.923461914063	-859.5844726562502	-360.0270080566407	992.2239990234377	-638.2359008789064	-552.6961059570314	1033.552612304688	-732.8976440429689	-554.5333862304689	1004.478393554688	-764.4617309570314	-549.5782470703126	997.1782226562502	-705.7101440429689	-248.191390991211	826.4083251953127	-942.469177246094	-165.0473785400391	809.960632324219	-933.3291015625002	-142.1116333007813	847.6520996093752	-915.022644042969	-138.8205871582032	754.3986206054689	-926.1174316406252	-38.8830680847168	685.5690917968751	-921.904235839844	-9.788121223449709	677.5120849609376	-806.6489868164065	112.6632232666016	634.7713623046876	-893.7561645507815	106.0368041992188	563.3806152343751	-943.1520996093752	135.8665161132813	589.8534545898439	-923.5257568359377	196.0172119140626	537.0563354492189	-886.712829589844	292.9107360839844	391.0390625000001	-929.8384399414065	298.8636779785157	392.268280029297	-842.5795898437502	280.7233276367188	302.0001831054688	-899.0198364257815	449.894012451172	457.9182739257814	-848.4237060546877	447.7771301269532	460.6903381347657	-891.3920898437502	437.3598022460939	417.9025268554689	-947.6721801757815	-299.3612670898438	730.8578491210939	-580.8022460937501	-239.5608062744141	700.6082153320314	-577.2056274414064	-211.6839294433594	717.4884643554689	-581.5262451171876	-227.0616455078126	616.7288208007814	-590.2641601562501	-208.1080322265626	493.0725402832032	-621.1592407226564	-172.2955932617188	500.2567138671876	-731.2096557617189	-228.287582397461	295.1929626464844	-673.8964233398439	-330.3325500488282	260.0520019531251	-673.4211425781251	-289.6547241210938	237.6873779296876	-678.5188598632814	-287.5736999511719	193.146957397461	-719.0070800781251	-381.5854492187501	123.2078628540039	-710.5018920898439	-346.9373474121094	145.3379974365235	-791.832946777344	-454.0027465820314	109.2453002929688	-768.4854125976565	-231.7733612060547	54.89804840087892	-777.4362792968752	-236.3919982910157	55.2557830810547	-731.4181518554689	-292.9195251464844	39.00290298461915	-680.7492675781251	-435.5357360839845	1640.21044921875	-746.5317993164064	nan	nan	nan	nan	nan	nan	nan	nan	nan	
